solid OpenSCAD_Model
  facet normal 0.98226 -0.187523 0
    outer loop
      vertex 35.8743 -0.994759 9.5
      vertex 35.9685 -0.501332 0
      vertex 35.9685 -0.501332 9.5
    endloop
  endfacet
  facet normal 0.98226 -0.187523 0
    outer loop
      vertex 35.9685 -0.501332 0
      vertex 35.8743 -0.994759 9.5
      vertex 35.8743 -0.994759 0
    endloop
  endfacet
  facet normal -0.368128 -0.929775 0
    outer loop
      vertex -1.70312 -3.61931 0
      vertex -1.23607 -3.80423 9.5
      vertex -1.70312 -3.61931 9.5
    endloop
  endfacet
  facet normal -0.368128 -0.929775 -0
    outer loop
      vertex -1.23607 -3.80423 9.5
      vertex -1.70312 -3.61931 0
      vertex -1.23607 -3.80423 0
    endloop
  endfacet
  facet normal 0.998032 -0.062709 0
    outer loop
      vertex 35.9685 -0.501332 9.5
      vertex 36 0 0
      vertex 36 0 9.5
    endloop
  endfacet
  facet normal 0.998032 -0.062709 0
    outer loop
      vertex 36 0 0
      vertex 35.9685 -0.501332 9.5
      vertex 35.9685 -0.501332 0
    endloop
  endfacet
  facet normal -1 0 0
    outer loop
      vertex -4 14 0
      vertex -4 8 8.5
      vertex -4 14 8.5
    endloop
  endfacet
  facet normal -1 0 0
    outer loop
      vertex -4 0 0
      vertex -4 8 8.5
      vertex -4 14 0
    endloop
  endfacet
  facet normal -1 0 0
    outer loop
      vertex -4 0 9.5
      vertex -4 8 8.5
      vertex -4 0 0
    endloop
  endfacet
  facet normal -1 0 0
    outer loop
      vertex -4 8 8.5
      vertex -4 0 9.5
      vertex -4 8 9.5
    endloop
  endfacet
  facet normal 0 -1 0
    outer loop
      vertex -0.251162 -3.99211 0
      vertex 32.2512 -3.99211 9.5
      vertex -0.251162 -3.99211 9.5
    endloop
  endfacet
  facet normal 0 -1 -0
    outer loop
      vertex 32.2512 -3.99211 9.5
      vertex -0.251162 -3.99211 0
      vertex 32.2512 -3.99211 0
    endloop
  endfacet
  facet normal 0.368162 -0.929762 0
    outer loop
      vertex 33.2361 -3.80423 0
      vertex 33.7031 -3.61931 9.5
      vertex 33.2361 -3.80423 9.5
    endloop
  endfacet
  facet normal 0.368162 -0.929762 0
    outer loop
      vertex 33.7031 -3.61931 9.5
      vertex 33.2361 -3.80423 0
      vertex 33.7031 -3.61931 0
    endloop
  endfacet
  facet normal 0.844383 -0.53574 0
    outer loop
      vertex 35.2361 -2.35114 9.5
      vertex 35.5052 -1.92701 0
      vertex 35.5052 -1.92701 9.5
    endloop
  endfacet
  facet normal 0.844383 -0.53574 0
    outer loop
      vertex 35.5052 -1.92701 0
      vertex 35.2361 -2.35114 9.5
      vertex 35.2361 -2.35114 0
    endloop
  endfacet
  facet normal -0.982286 -0.187389 0
    outer loop
      vertex -3.87433 -0.994759 0
      vertex -3.96846 -0.501332 9.5
      vertex -3.96846 -0.501332 0
    endloop
  endfacet
  facet normal -0.982286 -0.187389 0
    outer loop
      vertex -3.96846 -0.501332 9.5
      vertex -3.87433 -0.994759 0
      vertex -3.87433 -0.994759 9.5
    endloop
  endfacet
  facet normal 0.125353 -0.992112 0
    outer loop
      vertex 32.2512 -3.99211 0
      vertex 32.7495 -3.92915 9.5
      vertex 32.2512 -3.99211 9.5
    endloop
  endfacet
  facet normal 0.125353 -0.992112 0
    outer loop
      vertex 32.7495 -3.92915 9.5
      vertex 32.2512 -3.99211 0
      vertex 32.7495 -3.92915 0
    endloop
  endfacet
  facet normal 0.481751 -0.876308 0
    outer loop
      vertex 33.7031 -3.61931 0
      vertex 34.1433 -3.37731 9.5
      vertex 33.7031 -3.61931 9.5
    endloop
  endfacet
  facet normal 0.481751 -0.876308 0
    outer loop
      vertex 34.1433 -3.37731 9.5
      vertex 33.7031 -3.61931 0
      vertex 34.1433 -3.37731 0
    endloop
  endfacet
  facet normal -0 0 1
    outer loop
      vertex -4 14 8.5
      vertex 36 8 8.5
      vertex 36 14 8.5
    endloop
  endfacet
  facet normal 0 0 1
    outer loop
      vertex 36 8 8.5
      vertex -4 14 8.5
      vertex -4 8 8.5
    endloop
  endfacet
  facet normal 1 0 0
    outer loop
      vertex 36 8 9.5
      vertex 36 0 9.5
      vertex 36 8 8.5
    endloop
  endfacet
  facet normal 1 -0 0
    outer loop
      vertex 36 8 8.5
      vertex 36 14 0
      vertex 36 14 8.5
    endloop
  endfacet
  facet normal 1 0 0
    outer loop
      vertex 36 0 0
      vertex 36 8 8.5
      vertex 36 0 9.5
    endloop
  endfacet
  facet normal 1 0 0
    outer loop
      vertex 36 8 8.5
      vertex 36 0 0
      vertex 36 14 0
    endloop
  endfacet
  facet normal 0.904809 -0.425818 0
    outer loop
      vertex 35.5052 -1.92701 9.5
      vertex 35.7191 -1.4725 0
      vertex 35.7191 -1.4725 9.5
    endloop
  endfacet
  facet normal 0.904809 -0.425818 0
    outer loop
      vertex 35.7191 -1.4725 0
      vertex 35.5052 -1.92701 9.5
      vertex 35.5052 -1.92701 0
    endloop
  endfacet
  facet normal 0.587776 -0.809024 0
    outer loop
      vertex 34.1433 -3.37731 0
      vertex 34.5497 -3.08205 9.5
      vertex 34.1433 -3.37731 9.5
    endloop
  endfacet
  facet normal 0.587776 -0.809024 0
    outer loop
      vertex 34.5497 -3.08205 9.5
      vertex 34.1433 -3.37731 0
      vertex 34.5497 -3.08205 0
    endloop
  endfacet
  facet normal -0.125337 -0.992114 0
    outer loop
      vertex -0.749525 -3.92915 0
      vertex -0.251162 -3.99211 9.5
      vertex -0.749525 -3.92915 9.5
    endloop
  endfacet
  facet normal -0.125337 -0.992114 -0
    outer loop
      vertex -0.251162 -3.99211 9.5
      vertex -0.749525 -3.92915 0
      vertex -0.251162 -3.99211 0
    endloop
  endfacet
  facet normal -0.951061 -0.309004 0
    outer loop
      vertex -3.71911 -1.4725 0
      vertex -3.87433 -0.994759 9.5
      vertex -3.87433 -0.994759 0
    endloop
  endfacet
  facet normal -0.951061 -0.309004 0
    outer loop
      vertex -3.87433 -0.994759 9.5
      vertex -3.71911 -1.4725 0
      vertex -3.71911 -1.4725 9.5
    endloop
  endfacet
  facet normal 0.248657 -0.968592 0
    outer loop
      vertex 32.7495 -3.92915 0
      vertex 33.2361 -3.80423 9.5
      vertex 32.7495 -3.92915 9.5
    endloop
  endfacet
  facet normal 0.248657 -0.968592 0
    outer loop
      vertex 33.2361 -3.80423 9.5
      vertex 32.7495 -3.92915 0
      vertex 33.2361 -3.80423 0
    endloop
  endfacet
  facet normal -0.587786 -0.809017 0
    outer loop
      vertex -2.5497 -3.08205 0
      vertex -2.14331 -3.37731 9.5
      vertex -2.5497 -3.08205 9.5
    endloop
  endfacet
  facet normal -0.587786 -0.809017 -0
    outer loop
      vertex -2.14331 -3.37731 9.5
      vertex -2.5497 -3.08205 0
      vertex -2.14331 -3.37731 0
    endloop
  endfacet
  facet normal -0.904824 -0.425786 0
    outer loop
      vertex -3.50523 -1.92701 0
      vertex -3.71911 -1.4725 9.5
      vertex -3.71911 -1.4725 0
    endloop
  endfacet
  facet normal -0.904824 -0.425786 0
    outer loop
      vertex -3.71911 -1.4725 9.5
      vertex -3.50523 -1.92701 0
      vertex -3.50523 -1.92701 9.5
    endloop
  endfacet
  facet normal -0.844329 -0.535825 0
    outer loop
      vertex -3.23607 -2.35114 0
      vertex -3.50523 -1.92701 9.5
      vertex -3.50523 -1.92701 0
    endloop
  endfacet
  facet normal -0.844329 -0.535825 0
    outer loop
      vertex -3.50523 -1.92701 9.5
      vertex -3.23607 -2.35114 0
      vertex -3.23607 -2.35114 9.5
    endloop
  endfacet
  facet normal 0.770509 -0.637429 0
    outer loop
      vertex 34.9159 -2.73819 9.5
      vertex 35.2361 -2.35114 0
      vertex 35.2361 -2.35114 9.5
    endloop
  endfacet
  facet normal 0.770509 -0.637429 0
    outer loop
      vertex 35.2361 -2.35114 0
      vertex 34.9159 -2.73819 9.5
      vertex 34.9159 -2.73819 0
    endloop
  endfacet
  facet normal 0 0 -1
    outer loop
      vertex 32.2512 -3.99211 0
      vertex 36 0 0
      vertex 35.9685 -0.501332 0
    endloop
  endfacet
  facet normal 0 0 -1
    outer loop
      vertex 32.2512 -3.99211 0
      vertex 35.9685 -0.501332 0
      vertex 35.8743 -0.994759 0
    endloop
  endfacet
  facet normal 0 0 -1
    outer loop
      vertex 32.2512 -3.99211 0
      vertex 35.8743 -0.994759 0
      vertex 35.7191 -1.4725 0
    endloop
  endfacet
  facet normal 0 0 -1
    outer loop
      vertex 32.2512 -3.99211 0
      vertex 35.7191 -1.4725 0
      vertex 35.5052 -1.92701 0
    endloop
  endfacet
  facet normal 0 0 -1
    outer loop
      vertex 32.2512 -3.99211 0
      vertex 35.5052 -1.92701 0
      vertex 35.2361 -2.35114 0
    endloop
  endfacet
  facet normal 0 0 -1
    outer loop
      vertex 32.2512 -3.99211 0
      vertex 35.2361 -2.35114 0
      vertex 34.9159 -2.73819 0
    endloop
  endfacet
  facet normal 0 0 -1
    outer loop
      vertex 32.2512 -3.99211 0
      vertex 34.9159 -2.73819 0
      vertex 34.5497 -3.08205 0
    endloop
  endfacet
  facet normal 0 0 -1
    outer loop
      vertex 32.2512 -3.99211 0
      vertex 34.5497 -3.08205 0
      vertex 34.1433 -3.37731 0
    endloop
  endfacet
  facet normal 0 0 -1
    outer loop
      vertex 32.2512 -3.99211 0
      vertex 34.1433 -3.37731 0
      vertex 33.7031 -3.61931 0
    endloop
  endfacet
  facet normal 0 0 -1
    outer loop
      vertex 32.2512 -3.99211 0
      vertex 33.7031 -3.61931 0
      vertex 33.2361 -3.80423 0
    endloop
  endfacet
  facet normal 0 0 -1
    outer loop
      vertex 32.2512 -3.99211 0
      vertex 33.2361 -3.80423 0
      vertex 32.7495 -3.92915 0
    endloop
  endfacet
  facet normal -0 0 -1
    outer loop
      vertex 36 0 0
      vertex 32.2512 -3.99211 0
      vertex 36 14 0
    endloop
  endfacet
  facet normal 0 0 -1
    outer loop
      vertex -0.251162 -3.99211 0
      vertex 36 14 0
      vertex 32.2512 -3.99211 0
    endloop
  endfacet
  facet normal 0 0 -1
    outer loop
      vertex -4 0 0
      vertex -0.251162 -3.99211 0
      vertex -0.749525 -3.92915 0
    endloop
  endfacet
  facet normal 0 0 -1
    outer loop
      vertex -4 0 0
      vertex -0.749525 -3.92915 0
      vertex -1.23607 -3.80423 0
    endloop
  endfacet
  facet normal 0 0 -1
    outer loop
      vertex -4 0 0
      vertex -1.23607 -3.80423 0
      vertex -1.70312 -3.61931 0
    endloop
  endfacet
  facet normal 0 0 -1
    outer loop
      vertex -4 0 0
      vertex -1.70312 -3.61931 0
      vertex -2.14331 -3.37731 0
    endloop
  endfacet
  facet normal 0 0 -1
    outer loop
      vertex -4 0 0
      vertex -2.14331 -3.37731 0
      vertex -2.5497 -3.08205 0
    endloop
  endfacet
  facet normal 0 0 -1
    outer loop
      vertex -4 0 0
      vertex -2.5497 -3.08205 0
      vertex -2.91587 -2.73819 0
    endloop
  endfacet
  facet normal 0 0 -1
    outer loop
      vertex -4 0 0
      vertex -2.91587 -2.73819 0
      vertex -3.23607 -2.35114 0
    endloop
  endfacet
  facet normal 0 0 -1
    outer loop
      vertex -4 0 0
      vertex -3.23607 -2.35114 0
      vertex -3.50523 -1.92701 0
    endloop
  endfacet
  facet normal 0 0 -1
    outer loop
      vertex -4 0 0
      vertex -3.50523 -1.92701 0
      vertex -3.71911 -1.4725 0
    endloop
  endfacet
  facet normal 0 0 -1
    outer loop
      vertex -4 0 0
      vertex -3.71911 -1.4725 0
      vertex -3.87433 -0.994759 0
    endloop
  endfacet
  facet normal 0 0 -1
    outer loop
      vertex -4 0 0
      vertex -3.87433 -0.994759 0
      vertex -3.96846 -0.501332 0
    endloop
  endfacet
  facet normal 0 0 -1
    outer loop
      vertex -0.251162 -3.99211 0
      vertex -4 0 0
      vertex -4 14 0
    endloop
  endfacet
  facet normal 0 0 -1
    outer loop
      vertex -0.251162 -3.99211 0
      vertex -4 14 0
      vertex 36 14 0
    endloop
  endfacet
  facet normal -0.481759 -0.876304 0
    outer loop
      vertex -2.14331 -3.37731 0
      vertex -1.70312 -3.61931 9.5
      vertex -2.14331 -3.37731 9.5
    endloop
  endfacet
  facet normal -0.481759 -0.876304 -0
    outer loop
      vertex -1.70312 -3.61931 9.5
      vertex -2.14331 -3.37731 0
      vertex -1.70312 -3.61931 0
    endloop
  endfacet
  facet normal -0.998027 -0.0627883 0
    outer loop
      vertex -3.96846 -0.501332 0
      vertex -4 0 9.5
      vertex -4 0 0
    endloop
  endfacet
  facet normal -0.998027 -0.0627883 0
    outer loop
      vertex -4 0 9.5
      vertex -3.96846 -0.501332 0
      vertex -3.96846 -0.501332 9.5
    endloop
  endfacet
  facet normal -0.248683 -0.968585 0
    outer loop
      vertex -1.23607 -3.80423 0
      vertex -0.749525 -3.92915 9.5
      vertex -1.23607 -3.80423 9.5
    endloop
  endfacet
  facet normal -0.248683 -0.968585 -0
    outer loop
      vertex -0.749525 -3.92915 9.5
      vertex -1.23607 -3.80423 0
      vertex -0.749525 -3.92915 0
    endloop
  endfacet
  facet normal 0.951073 -0.308968 0
    outer loop
      vertex 35.7191 -1.4725 9.5
      vertex 35.8743 -0.994759 0
      vertex 35.8743 -0.994759 9.5
    endloop
  endfacet
  facet normal 0.951073 -0.308968 0
    outer loop
      vertex 35.8743 -0.994759 0
      vertex 35.7191 -1.4725 9.5
      vertex 35.7191 -1.4725 0
    endloop
  endfacet
  facet normal 0.684521 -0.728993 0
    outer loop
      vertex 34.5497 -3.08205 0
      vertex 34.9159 -2.73819 9.5
      vertex 34.5497 -3.08205 9.5
    endloop
  endfacet
  facet normal 0.684521 -0.728993 0
    outer loop
      vertex 34.9159 -2.73819 9.5
      vertex 34.5497 -3.08205 0
      vertex 34.9159 -2.73819 0
    endloop
  endfacet
  facet normal -0.770509 -0.637429 0
    outer loop
      vertex -2.91587 -2.73819 0
      vertex -3.23607 -2.35114 9.5
      vertex -3.23607 -2.35114 0
    endloop
  endfacet
  facet normal -0.770509 -0.637429 0
    outer loop
      vertex -3.23607 -2.35114 9.5
      vertex -2.91587 -2.73819 0
      vertex -2.91587 -2.73819 9.5
    endloop
  endfacet
  facet normal -0.684551 -0.728965 0
    outer loop
      vertex -2.91587 -2.73819 0
      vertex -2.5497 -3.08205 9.5
      vertex -2.91587 -2.73819 9.5
    endloop
  endfacet
  facet normal -0.684551 -0.728965 -0
    outer loop
      vertex -2.5497 -3.08205 9.5
      vertex -2.91587 -2.73819 0
      vertex -2.5497 -3.08205 0
    endloop
  endfacet
  facet normal 0 1 -0
    outer loop
      vertex 36 14 0
      vertex -4 14 8.5
      vertex 36 14 8.5
    endloop
  endfacet
  facet normal 0 1 0
    outer loop
      vertex -4 14 8.5
      vertex 36 14 0
      vertex -4 14 0
    endloop
  endfacet
  facet normal 0 0 1
    outer loop
      vertex 32.2512 -3.99211 9.5
      vertex 36 0 9.5
      vertex 36 8 9.5
    endloop
  endfacet
  facet normal 0 0 1
    outer loop
      vertex 36 0 9.5
      vertex 32.2512 -3.99211 9.5
      vertex 35.9685 -0.501332 9.5
    endloop
  endfacet
  facet normal 0 0 1
    outer loop
      vertex 35.9685 -0.501332 9.5
      vertex 32.2512 -3.99211 9.5
      vertex 35.8743 -0.994759 9.5
    endloop
  endfacet
  facet normal 0 0 1
    outer loop
      vertex 35.8743 -0.994759 9.5
      vertex 32.2512 -3.99211 9.5
      vertex 35.7191 -1.4725 9.5
    endloop
  endfacet
  facet normal 0 0 1
    outer loop
      vertex 35.7191 -1.4725 9.5
      vertex 32.2512 -3.99211 9.5
      vertex 35.5052 -1.92701 9.5
    endloop
  endfacet
  facet normal 0 0 1
    outer loop
      vertex 35.5052 -1.92701 9.5
      vertex 32.2512 -3.99211 9.5
      vertex 35.2361 -2.35114 9.5
    endloop
  endfacet
  facet normal 0 0 1
    outer loop
      vertex 35.2361 -2.35114 9.5
      vertex 32.2512 -3.99211 9.5
      vertex 34.9159 -2.73819 9.5
    endloop
  endfacet
  facet normal 0 0 1
    outer loop
      vertex 34.9159 -2.73819 9.5
      vertex 32.2512 -3.99211 9.5
      vertex 34.5497 -3.08205 9.5
    endloop
  endfacet
  facet normal 0 0 1
    outer loop
      vertex 34.5497 -3.08205 9.5
      vertex 32.2512 -3.99211 9.5
      vertex 34.1433 -3.37731 9.5
    endloop
  endfacet
  facet normal 0 0 1
    outer loop
      vertex 34.1433 -3.37731 9.5
      vertex 32.2512 -3.99211 9.5
      vertex 33.7031 -3.61931 9.5
    endloop
  endfacet
  facet normal 0 0 1
    outer loop
      vertex 33.7031 -3.61931 9.5
      vertex 32.2512 -3.99211 9.5
      vertex 33.2361 -3.80423 9.5
    endloop
  endfacet
  facet normal 0 0 1
    outer loop
      vertex 33.2361 -3.80423 9.5
      vertex 32.2512 -3.99211 9.5
      vertex 32.7495 -3.92915 9.5
    endloop
  endfacet
  facet normal 0 0 1
    outer loop
      vertex 36 8 9.5
      vertex -0.251162 -3.99211 9.5
      vertex 32.2512 -3.99211 9.5
    endloop
  endfacet
  facet normal -0 0 1
    outer loop
      vertex -4 8 9.5
      vertex -0.251162 -3.99211 9.5
      vertex 36 8 9.5
    endloop
  endfacet
  facet normal -0 0 1
    outer loop
      vertex -4 0 9.5
      vertex -0.251162 -3.99211 9.5
      vertex -4 8 9.5
    endloop
  endfacet
  facet normal 0 0 1
    outer loop
      vertex -0.251162 -3.99211 9.5
      vertex -4 0 9.5
      vertex -0.749525 -3.92915 9.5
    endloop
  endfacet
  facet normal 0 0 1
    outer loop
      vertex -0.749525 -3.92915 9.5
      vertex -4 0 9.5
      vertex -1.23607 -3.80423 9.5
    endloop
  endfacet
  facet normal 0 0 1
    outer loop
      vertex -1.23607 -3.80423 9.5
      vertex -4 0 9.5
      vertex -1.70312 -3.61931 9.5
    endloop
  endfacet
  facet normal 0 0 1
    outer loop
      vertex -1.70312 -3.61931 9.5
      vertex -4 0 9.5
      vertex -2.14331 -3.37731 9.5
    endloop
  endfacet
  facet normal 0 0 1
    outer loop
      vertex -2.14331 -3.37731 9.5
      vertex -4 0 9.5
      vertex -2.5497 -3.08205 9.5
    endloop
  endfacet
  facet normal 0 0 1
    outer loop
      vertex -2.5497 -3.08205 9.5
      vertex -4 0 9.5
      vertex -2.91587 -2.73819 9.5
    endloop
  endfacet
  facet normal 0 0 1
    outer loop
      vertex -3.23607 -2.35114 9.5
      vertex -4 0 9.5
      vertex -3.50523 -1.92701 9.5
    endloop
  endfacet
  facet normal 0 0 1
    outer loop
      vertex -3.50523 -1.92701 9.5
      vertex -4 0 9.5
      vertex -3.71911 -1.4725 9.5
    endloop
  endfacet
  facet normal 0 0 1
    outer loop
      vertex -3.71911 -1.4725 9.5
      vertex -4 0 9.5
      vertex -3.87433 -0.994759 9.5
    endloop
  endfacet
  facet normal 0 0 1
    outer loop
      vertex -2.91587 -2.73819 9.5
      vertex -4 0 9.5
      vertex -3.23607 -2.35114 9.5
    endloop
  endfacet
  facet normal 0 0 1
    outer loop
      vertex -3.87433 -0.994759 9.5
      vertex -4 0 9.5
      vertex -3.96846 -0.501332 9.5
    endloop
  endfacet
  facet normal 0 1 -0
    outer loop
      vertex 36 8 8.5
      vertex -4 8 9.5
      vertex 36 8 9.5
    endloop
  endfacet
  facet normal 0 1 0
    outer loop
      vertex -4 8 9.5
      vertex 36 8 8.5
      vertex -4 8 8.5
    endloop
  endfacet
endsolid OpenSCAD_Model
